<svg id="Layer_1" enable-background="new 0 0 26 26" height="512" viewBox="0 0 26 26" width="512" xmlns="http://www.w3.org/2000/svg"><g id="_x33_72"><path d="m5.2125244 25.0032043h15.25c.5527344 0 1-.4472656 1-1v-3.1964111h1.8574219c.5500488 0 1-.4400024 1-1v-17.3900146c0-.5599976-.4499512-1-1-1h-12.579834c-1.0300293 0-1.9702148.3900146-2.670166 1.0300293-.1098633-.1400147-.2199707-.2800293-.3498535-.4099732-.670166-.6700439-1.5600586-1.040039-2.5100098-1.040039-1.9401855 0-3.5300293 1.5900269-3.5300293 3.5400391v15.2399902c0 .0040283.0021973.0072632.0021973.0112305v1.6849365c0 1.9422683 1.5782172 3.5302123 3.5302734 3.5302123zm6.5373535-19.5864257h7.5700684c.5500488 0 1 .4500122 1 1 0 .5500488-.4499512 1-1 1h-7.5700684c-.5498047 0-1-.4499512-1-1 0-.5499878.4501953-1 1-1zm0 4.7000122h7.5700684c.5500488 0 1 .4400024 1 1 0 .5499878-.4499512 1-1 1h-7.5700684c-.5498047 0-1-.4500122-1-1 0-.5599976.4501953-1 1-1zm0 4.7000122h3.7900391c.5500488 0 1 .4400024 1 1 0 .5499878-.4499512 1-1 1h-3.7900391c-.5498047 0-1-.4500122-1-1 0-.5599976.4501953-1 1-1zm-3.9973144 5.9950561h11.7099609v2.1914063h-14.25c-.8446126 0-1.5302734-.6913509-1.5302734-1.5302734v-1.6904297c0-.84375.6865234-1.5302734 1.5302734-1.5302734.7429199 0 1.3640137.5249634 1.5083008 1.2405396.005127.0257568.0046387.0530396.0080566.0792236.132556.8770274.5057054 1.239807 1.0236817 1.239807zm-4.0725098-16.2750244c0-.8500366.6899414-1.5400391 1.5300293-1.5400391.8690848 0 1.5397949.7044737 1.5397949 1.5400391v12.0599976c-.9224005-.4319973-2.1076546-.4616299-3.0698242 0z"/></g></svg>