<svg id="Bahan_copy_2" height="512" viewBox="0 0 64 64" width="512" xmlns="http://www.w3.org/2000/svg" data-name="Bahan copy 2"><g fill="rgb(0,0,0)"><path d="m56.77 43.48c5.24109-12.63031-.998-28.07965-13.53021-33.54987a1.00008 1.00008 0 1 0 -.82979 1.81987 24.26812 24.26812 0 0 1 14.21 22.05 23.98958 23.98958 0 0 1 -1.66 8.79 4.656 4.656 0 1 0 1.81.89z"/><path d="m7.3 37c1.61487-.1311.75946-2.14917.91009-3.2a24.25071 24.25071 0 0 1 20.13991-23.87 4.65387 4.65387 0 0 0 9.13-1.28c-.10474-5.69348-8.29553-6.30829-9.25-.71985a26.26716 26.26716 0 0 0 -21.91994 28.15985.99123.99123 0 0 0 .98994.91z"/><path d="m46.01367 53.81445a24.18708 24.18708 0 0 1 -32.5003-4.909 4.64355 4.64355 0 1 0 -1.61145 1.18341 26.18122 26.18122 0 0 0 35.23675 5.37794.99967.99967 0 0 0 -1.125-1.65235z"/><path d="m32 19.11c-6.34-.09-9.89 7.71-5.71 12.4a7.5797 7.5797 0 0 0 11.42 0c4.15-4.69.62-12.49-5.71-12.4z"/><path d="m38.04 33.96a9.5773 9.5773 0 0 1 -13.5199-1.46014 13.70918 13.70918 0 0 0 -5.9701 9.18014 2.77167 2.77167 0 0 0 2.71008 3.21h21.46992a2.77083 2.77083 0 0 0 2.72-3.21008 13.76826 13.76826 0 0 0 -5.98-9.17992 8.97687 8.97687 0 0 1 -1.43 1.46z"/></g></svg>