<svg id="Layer_1" enable-background="new 0 0 512 512" height="512" viewBox="0 0 512 512" width="512" xmlns="http://www.w3.org/2000/svg"><path clip-rule="evenodd" d="m346.25 379.28v-26.62c0-38.81-16.98-73.84-43.88-98.02 12.87-11.93 30.08-19.25 49.01-19.25 19.9 0 37.93 8.08 50.94 21.09 13.04 13.04 21.12 31.07 21.12 50.94 0 19.9-8.08 37.93-21.12 50.94-13.01 13.04-31.04 21.12-50.94 21.12-1.72 0-3.42-.06-5.13-.2zm160.76-93.26-21.71-7.06c-2.44-.79-4.14-2.61-4.76-5.05-3.15-12.1-7.94-23.56-14.12-34.04-1.3-2.21-1.39-4.71-.23-6.97l10.38-20.35c1.45-2.83.94-6.15-1.33-8.39l-20.55-20.58c-2.24-2.24-5.56-2.75-8.39-1.3l-20.35 10.37c-2.27 1.13-4.76 1.08-6.97-.23-10.49-6.18-21.94-10.97-34.04-14.12-2.44-.62-4.25-2.32-5.05-4.76l-7.06-21.71c-.99-3.03-3.68-4.99-6.89-4.99h-29.06c-3.2 0-5.9 1.96-6.89 4.99l-7.06 21.71c-.79 2.44-2.61 4.14-5.07 4.76-12.08 3.15-23.53 7.94-34.02 14.12-2.21 1.3-4.71 1.36-6.97.23l-20.35-10.37c-2.83-1.45-6.15-.94-8.39 1.3l-20.58 20.58c-2.24 2.24-2.75 5.56-1.3 8.39l4.73 9.3c21.46 2.72 41.33 10.66 58.34 22.45 15.99-15.7 37.9-25.43 62.08-25.43 24.46 0 46.6 9.92 62.62 25.94 16.04 16.04 25.94 38.18 25.94 62.62 0 24.46-9.89 46.6-25.94 62.62-16.02 16.04-38.15 25.94-62.62 25.94-1.73 0-3.43-.03-5.13-.14v54.65c0 6.41-1.79 12.42-4.9 17.55h24.58c3.2 0 5.9-1.96 6.89-4.99l7.06-21.74c.79-2.41 2.61-4.11 5.05-4.76 12.1-3.12 23.56-7.91 34.04-14.09 2.21-1.3 4.71-1.39 6.97-.23l20.35 10.38c2.83 1.45 6.15.94 8.39-1.33l20.55-20.55c2.27-2.24 2.78-5.56 1.33-8.39l-10.38-20.38c-1.16-2.27-1.08-4.73.23-6.94 6.18-10.49 10.97-21.94 14.09-34.04.65-2.44 2.35-4.28 4.76-5.05l21.74-7.06c3.03-.99 4.99-3.68 4.99-6.89v-29.06c-.01-3.23-1.97-5.92-5-6.91zm-360.43 58.99 18.28 32.43 18.28-32.43-9.07-107.69h-18.4zm67.78-107.69h-23.73l9.18 108.79h-.03c.11 1.59-.2 3.23-1.05 4.71l-26.67 47.31c-.71 1.28-1.79 2.41-3.17 3.17-3.94 2.24-8.96.82-11.2-3.12l-26.33-46.69c-1.05-1.53-1.62-3.4-1.45-5.39l9.18-108.79h-23.73c-63.45.01-115.36 51.91-115.36 115.35v97.82c0 9.64 7.91 17.55 17.58 17.55h54.76v-69.08c0-4.56 3.69-8.25 8.25-8.25s8.25 3.69 8.25 8.25v69.08h152.05v-69.08c0-4.56 3.68-8.25 8.25-8.25 4.56 0 8.28 3.69 8.28 8.25v69.08h54.77c9.64 0 17.55-7.91 17.55-17.55v-97.82c-.01-63.44-51.91-115.34-115.38-115.34zm-49.49-30.47c44.84 0 81.44-36.6 81.44-81.44 0-44.87-36.6-81.44-81.44-81.44s-81.44 36.57-81.44 81.44c0 44.84 36.59 81.44 81.44 81.44z" fill-rule="evenodd"/></svg>